<?xml version="1.0" standalone="no"?><!DOCTYPE svg PUBLIC "-//W3C//DTD SVG 1.1//EN" "http://www.w3.org/Graphics/SVG/1.1/DTD/svg11.dtd"><svg t="1753186141578" class="icon" viewBox="0 0 1024 1024" version="1.1" xmlns="http://www.w3.org/2000/svg" p-id="13340" xmlns:xlink="http://www.w3.org/1999/xlink" width="32" height="32"><path d="M20.014 512.002a491.988 491.988 0 1 0 983.976 0 491.988 491.988 0 1 0-983.976 0z" fill="#FDDF6D" p-id="13341"></path><path d="M617.43 931.356c-271.716 0-491.986-220.268-491.986-491.986 0-145.168 62.886-275.632 162.888-365.684C129.054 155.124 20.014 320.828 20.014 512c0 271.716 220.268 491.986 491.986 491.986 126.548 0 241.924-47.796 329.098-126.298-67.106 34.31-143.124 53.668-223.668 53.668z" fill="#FCC56B" p-id="13342"></path><path d="M283.596 359.704a142.718 142.718 0 1 0 285.436 0 142.718 142.718 0 1 0-285.436 0zM683.836 359.704a142.718 142.718 0 1 0 285.436 0 142.718 142.718 0 1 0-285.436 0z" fill="#FFFFFF" p-id="13343"></path><path d="M300.576 556.564c-36.536 0-66.156 29.62-66.156 66.156h132.314c-0.004-36.538-29.622-66.156-66.158-66.156z m577.052 0c-36.536 0-66.156 29.62-66.156 66.156h132.314c0-36.538-29.622-66.156-66.158-66.156z" fill="#F9A880" p-id="13344"></path><path d="M717.692 710.348H504.616c-11.054 0-20.014-8.958-20.014-20.014s8.962-20.014 20.014-20.014h213.076c11.054 0 20.014 8.958 20.014 20.014 0.002 11.056-8.96 20.014-20.014 20.014z" fill="" p-id="13345"></path><path d="M410.3 359.704a40.03 40.03 0 1 0 80.06 0 40.03 40.03 0 1 0-80.06 0zM816.438 359.704a40.03 40.03 0 1 0 80.06 0 40.03 40.03 0 1 0-80.06 0z" fill="#7F184C" p-id="13346"></path><path d="M976.296 296.028c-24.834-58.17-82.6-99.052-149.742-99.052-89.732 0-162.732 73-162.732 162.732s73 162.732 162.732 162.732c66.774 0 124.256-40.44 149.316-98.102a475.43 475.43 0 0 1 8.104 87.656c0 260.248-211.724 471.968-471.97 471.968S40.03 772.248 40.03 512 251.752 40.03 512 40.03c85.956 0 170.084 23.324 243.29 67.452 9.468 5.71 21.768 2.658 27.474-6.808 5.706-9.468 2.658-21.768-6.808-27.474C696.514 25.312 605.24 0 512 0 229.68 0 0 229.68 0 512c0 282.316 229.68 512 512 512s512-229.68 512-511.998c0-75.548-16.076-148.154-47.704-215.974z m-27.042 63.684c0 67.66-55.044 122.704-122.704 122.704S703.846 427.37 703.846 359.712 758.89 237.008 826.55 237.008c48.02 0 89.66 27.744 109.804 68.028 0.136 0.322 0.256 0.648 0.41 0.966 1.016 2.092 1.972 4.206 2.956 6.308a121.964 121.964 0 0 1 9.534 47.402z" fill="" p-id="13347"></path><path d="M426.326 196.98c-89.732 0-162.732 73-162.732 162.732s73 162.732 162.732 162.732 162.732-73 162.732-162.732S516.056 196.98 426.326 196.98z m0 285.436c-67.66 0-122.704-55.046-122.704-122.704s55.044-122.704 122.704-122.704S549.03 292.054 549.03 359.712s-55.046 122.704-122.704 122.704z m58.276 207.914c0 11.056 8.962 20.014 20.014 20.014h213.076c11.054 0 20.014-8.958 20.014-20.014s-8.962-20.014-20.014-20.014H504.616c-11.054 0-20.014 8.958-20.014 20.014zM806.54 132.542a20.014 20.014 0 1 0 40.028 0 20.014 20.014 0 1 0-40.028 0z" fill="" p-id="13348"></path></svg>